<svg width="331" height="332" xmlns="http://www.w3.org/2000/svg" xmlns:xlink="http://www.w3.org/1999/xlink" overflow="hidden"><defs><clipPath id="clip0"><rect x="173" y="76" width="331" height="332"/></clipPath><clipPath id="clip1"><rect x="174" y="77" width="330" height="330"/></clipPath><clipPath id="clip2"><rect x="174" y="77" width="330" height="330"/></clipPath><clipPath id="clip3"><rect x="174" y="77" width="330" height="330"/></clipPath></defs><g clip-path="url(#clip0)" transform="translate(-173 -76)"><g clip-path="url(#clip1)"><g clip-path="url(#clip2)"><g clip-path="url(#clip3)"><path d="M472.488 132.488 448.312 108.226C442.947 102.853 434.241 102.846 428.867 108.212 428.862 108.217 428.858 108.222 428.853 108.226L222.259 314.82 201.541 379.5 266.008 358.552 472.478 151.913C477.837 146.549 477.842 137.859 472.488 132.488ZM404.56 142.223 438.512 176.179 431.173 183.525 397.214 149.566ZM262.103 352.595 223.861 365.018 215.938 357.091 228.23 318.701C235.191 313.228 247.397 315.635 256.29 324.524 265.183 333.413 267.589 345.637 262.103 352.595ZM261.147 319.663C255.002 313.257 246.639 309.444 237.773 309.007L392.353 154.426 426.312 188.375 271.821 343.011C271.37 334.152 267.552 325.801 261.147 319.663ZM467.614 147.053 443.373 171.315 409.421 137.363 433.71 113.07C436.392 110.382 440.746 110.378 443.433 113.061 443.436 113.064 443.438 113.067 443.442 113.07L467.621 137.332C470.303 140.018 470.3 144.37 467.614 147.053Z" stroke="#AFABAB" stroke-width="5.0152" stroke-linecap="butt" stroke-linejoin="miter" stroke-miterlimit="4" stroke-opacity="1" fill="#AFABAB" fill-rule="nonzero" fill-opacity="1"/></g></g></g></g></svg>