<svg width="331" height="331" xmlns="http://www.w3.org/2000/svg" xmlns:xlink="http://www.w3.org/1999/xlink" overflow="hidden"><defs><clipPath id="clip0"><rect x="673" y="326" width="331" height="331"/></clipPath><clipPath id="clip1"><rect x="674" y="327" width="330" height="330"/></clipPath><clipPath id="clip2"><rect x="674" y="327" width="330" height="330"/></clipPath><clipPath id="clip3"><rect x="674" y="327" width="330" height="330"/></clipPath></defs><g clip-path="url(#clip0)" transform="translate(-673 -326)"><g clip-path="url(#clip1)"><g clip-path="url(#clip2)"><g clip-path="url(#clip3)"><path d="M244.062 165C244.062 170.695 239.445 175.312 233.75 175.312L121.138 175.312 151.662 205.838C155.545 210.004 155.315 216.53 151.148 220.413 147.188 224.103 141.048 224.103 137.088 220.413L88.9625 172.287C84.9413 168.261 84.9413 161.739 88.9625 157.712L137.088 109.587C141.254 105.705 147.78 105.935 151.663 110.102 155.353 114.062 155.353 120.202 151.663 124.162L121.138 154.688 233.75 154.688C239.445 154.688 244.062 159.305 244.062 165Z" stroke="#AFABAB" stroke-width="6.01824" stroke-linecap="butt" stroke-linejoin="miter" stroke-miterlimit="4" stroke-opacity="1" fill="#FFFFFF" fill-rule="nonzero" fill-opacity="1" transform="matrix(-1 0 0 1 1004 327)"/><path d="M34.375 165C34.375 237.142 92.8578 295.625 165 295.625 237.142 295.625 295.625 237.142 295.625 165 295.625 92.8578 237.142 34.375 165 34.375 92.8578 34.375 34.375 92.8578 34.375 165ZM55 165C55 104.249 104.249 55 165 55 225.751 55 275 104.249 275 165 275 225.751 225.751 275 165 275 104.249 275 55 225.751 55 165Z" stroke="#AFABAB" stroke-width="6.01824" stroke-linecap="butt" stroke-linejoin="miter" stroke-miterlimit="4" stroke-opacity="1" fill="#FFFFFF" fill-rule="nonzero" fill-opacity="1" transform="matrix(-1 0 0 1 1004 327)"/></g></g></g></g></svg>