<svg width="1137" height="1141" xmlns="http://www.w3.org/2000/svg" xmlns:xlink="http://www.w3.org/1999/xlink" overflow="hidden"><defs><clipPath id="clip0"><rect x="1063" y="197" width="1137" height="1141"/></clipPath><clipPath id="clip1"><rect x="1065" y="200" width="1135" height="1135"/></clipPath><clipPath id="clip2"><rect x="1065" y="200" width="1135" height="1135"/></clipPath><clipPath id="clip3"><rect x="1065" y="200" width="1135" height="1135"/></clipPath><clipPath id="clip4"><rect x="1065" y="200" width="1135" height="1135"/></clipPath><clipPath id="clip5"><rect x="1065" y="200" width="1135" height="1135"/></clipPath><clipPath id="clip6"><rect x="1065" y="200" width="1135" height="1135"/></clipPath></defs><g clip-path="url(#clip0)" transform="translate(-1063 -197)"><g clip-path="url(#clip1)"><g clip-path="url(#clip2)"><g clip-path="url(#clip3)"><path d="M747.519 496.125 946.748 496.125C946.813 496.124 946.865 496.071 946.865 496.006 946.864 495.975 946.852 495.945 946.831 495.924L719.133 268.226 735.836 251.524 992.25 507.938 735.836 764.351 719.133 747.649 946.831 519.951C946.877 519.905 946.876 519.829 946.83 519.784 946.807 519.763 946.779 519.75 946.748 519.75L747.519 519.75C483.149 518.89 245.212 679.985 147.833 925.769L125.886 916.981C226.84 662.213 473.48 495.234 747.519 496.125Z" stroke="#AFABAB" stroke-width="57.4468" stroke-linecap="butt" stroke-linejoin="miter" stroke-miterlimit="4" stroke-opacity="1" fill="#FFFFFF" fill-rule="nonzero" fill-opacity="1" transform="matrix(-1 0 0 1 2200 200)"/></g></g></g><g clip-path="url(#clip4)"><g clip-path="url(#clip5)"><g clip-path="url(#clip6)"><path d="M747.519 496.125 946.748 496.125C946.813 496.124 946.865 496.071 946.865 496.006 946.864 495.975 946.852 495.945 946.831 495.924L719.133 268.226 735.836 251.524 992.25 507.938 735.836 764.351 719.133 747.649 946.831 519.951C946.877 519.905 946.876 519.829 946.83 519.784 946.807 519.763 946.779 519.75 946.748 519.75L747.519 519.75C483.149 518.89 245.212 679.985 147.833 925.769L125.886 916.981C226.84 662.213 473.48 495.234 747.519 496.125Z" stroke="#FFFFFF" stroke-width="24.1276" stroke-linecap="butt" stroke-linejoin="miter" stroke-miterlimit="4" stroke-opacity="1" fill="#FFFFFF" fill-rule="nonzero" fill-opacity="1" transform="matrix(-1 0 0 1 2200 200)"/></g></g></g></g></svg>