<svg width="514" height="512" xmlns="http://www.w3.org/2000/svg" xmlns:xlink="http://www.w3.org/1999/xlink" overflow="hidden"><defs><clipPath id="clip0"><rect x="358" y="104" width="514" height="512"/></clipPath><clipPath id="clip1"><rect x="359" y="104" width="512" height="512"/></clipPath><clipPath id="clip2"><rect x="359" y="104" width="512" height="512"/></clipPath><clipPath id="clip3"><rect x="359" y="104" width="512" height="512"/></clipPath></defs><g clip-path="url(#clip0)" transform="translate(-358 -104)"><g clip-path="url(#clip1)"><g clip-path="url(#clip2)"><g clip-path="url(#clip3)"><path d="M865.606 246.445 797.079 177.921 728.555 109.393C721.36 102.202 709.696 102.202 702.505 109.393L524.762 287.14 387.836 424.062 359 616 550.938 587.168 687.864 450.242 865.606 272.5C872.798 265.304 872.798 253.64 865.606 246.445ZM547.508 537.246C547.508 537.246 546.633 553.071 546.79 554.106L538.462 562.438 429.075 578.868 396.133 545.926 412.567 436.539 420.895 428.211C421.93 428.371 422.981 428.449 424.048 428.383L455.966 426.309C465.052 425.723 473.048 433.719 472.459 442.805L469.459 489.055C468.865 498.137 476.865 506.137 485.947 505.547L532.201 502.547C541.283 501.953 549.283 509.953 548.694 519.036L547.508 537.246Z" stroke="#FFFFFF" stroke-width="8" stroke-linecap="butt" stroke-linejoin="miter" stroke-miterlimit="4" stroke-opacity="1" fill="#AFABAB" fill-rule="nonzero" fill-opacity="1"/></g></g></g></g></svg>