<svg width="1137" height="1136" xmlns="http://www.w3.org/2000/svg" xmlns:xlink="http://www.w3.org/1999/xlink" overflow="hidden"><defs><clipPath id="clip0"><rect x="1805" y="307" width="1137" height="1136"/></clipPath><clipPath id="clip1"><rect x="1807" y="309" width="1135" height="1135"/></clipPath><clipPath id="clip2"><rect x="1807" y="309" width="1135" height="1135"/></clipPath><clipPath id="clip3"><rect x="1807" y="309" width="1135" height="1135"/></clipPath><clipPath id="clip4"><rect x="1807" y="309" width="1135" height="1135"/></clipPath><clipPath id="clip5"><rect x="1807" y="309" width="1135" height="1135"/></clipPath><clipPath id="clip6"><rect x="1807" y="309" width="1135" height="1135"/></clipPath></defs><g clip-path="url(#clip0)" transform="translate(-1805 -307)"><g clip-path="url(#clip1)"><g clip-path="url(#clip2)"><g clip-path="url(#clip3)"><path d="M2554.52 805.125 2753.75 805.125C2753.81 805.124 2753.87 805.071 2753.87 805.006 2753.86 804.975 2753.85 804.945 2753.83 804.924L2526.13 577.227 2542.84 560.524 2799.25 816.938 2542.84 1073.35 2526.13 1056.65 2753.83 828.951C2753.88 828.905 2753.88 828.829 2753.83 828.784 2753.81 828.763 2753.78 828.75 2753.75 828.75L2554.52 828.75C2290.15 827.89 2052.21 988.985 1954.83 1234.77L1932.89 1225.98C2033.84 971.214 2280.48 804.234 2554.52 805.125Z" stroke="#AFABAB" stroke-width="57.4468" stroke-linecap="butt" stroke-linejoin="miter" stroke-miterlimit="4" stroke-opacity="1" fill="#FFFFFF" fill-rule="nonzero" fill-opacity="1"/></g></g></g><g clip-path="url(#clip4)"><g clip-path="url(#clip5)"><g clip-path="url(#clip6)"><path d="M2554.52 805.125 2753.75 805.125C2753.81 805.124 2753.87 805.071 2753.87 805.006 2753.86 804.975 2753.85 804.945 2753.83 804.924L2526.13 577.227 2542.84 560.524 2799.25 816.938 2542.84 1073.35 2526.13 1056.65 2753.83 828.951C2753.88 828.905 2753.88 828.829 2753.83 828.784 2753.81 828.763 2753.78 828.75 2753.75 828.75L2554.52 828.75C2290.15 827.89 2052.21 988.985 1954.83 1234.77L1932.89 1225.98C2033.84 971.214 2280.48 804.234 2554.52 805.125Z" stroke="#FFFFFF" stroke-width="24.1276" stroke-linecap="butt" stroke-linejoin="miter" stroke-miterlimit="4" stroke-opacity="1" fill="#FFFFFF" fill-rule="nonzero" fill-opacity="1"/></g></g></g></g></svg>